<?xml version="1.0" encoding="UTF-8"?>
<svg width="150px" height="195px" viewBox="0 0 150 195" version="1.1" xmlns="http://www.w3.org/2000/svg" xmlns:xlink="http://www.w3.org/1999/xlink">
    <title>thumnail_no_img</title>
    <g id="mWeb_Main" stroke="none" stroke-width="1" fill="none" fill-rule="evenodd">
        <g id="mWEB_Home" transform="translate(-174.000000, -635.000000)">
            <g id="SECTIONS" transform="translate(0.000000, 225.000000)">
                <g id="2_개인화-구좌_오늘의-추천" transform="translate(0.000000, 340.000000)">
                    <g id="링크-오류시" transform="translate(0.000000, 70.000000)">
                        <g transform="translate(174.000000, 0.000000)" id="thumnail_no_img">
                            <rect id="img1" x="0" y="0" width="150" height="195"></rect>
                            <g id="_Assets-/-Bars-/-Top-/-navi_logo" transform="translate(30.349999, 75.181912)" fill="#D9D9D9" fill-rule="nonzero">
                                <g id="navi_logo" transform="translate(0.000000, 0.000000)">
                                    <path d="M71.3908543,0.619690411 C72.3045859,1.46696881 72.1449233,2.70142459 71.5023245,4.60337616 L71.3048442,5.15907609 C70.5344922,7.24138745 64.840733,22.6341209 64.474552,23.6868911 C62.8506941,28.2884066 66.6069617,28.155131 68.8375743,23.5220502 L69.2102747,22.7262008 C70.3896742,20.1353617 71.7029998,16.6302988 71.7029998,16.6302988 L71.8972413,16.0266061 C72.3059732,14.6916101 72.3991894,13.8718446 72.0923048,13.5649599 C71.9765655,13.4422061 72.1414063,13.2913942 72.288711,13.2142347 C74.6858305,12.0002869 77.1796383,13.0801875 76.0025385,16.5319541 L75.8176576,17.0227537 L72.9410599,24.2515588 C72.2080441,26.0507794 72.2957255,27.7588114 73.3934955,27.7588114 C74.1370331,27.7553042 74.9752665,27.3414484 75.8906594,26.5803745 C77.642727,25.1307101 79.0400857,22.5642672 79.7132473,21.1423144 L80.2773106,19.8878804 C80.6814908,18.9625244 81.3140411,17.4591795 81.8459744,15.93937 C82.1013127,15.2195255 82.2455934,14.4650086 82.2738593,13.7017428 C82.2350916,13.5082722 82.3185443,13.3107675 82.4842944,13.2037129 C83.0414466,12.9067156 83.6626732,12.750205 84.2940368,12.7477701 C84.9149453,12.7361152 85.5045336,13.0198464 85.8828222,13.5123512 C86.3289949,14.1148471 86.4757806,15.074188 86.0929148,16.2752418 L85.979371,16.5983488 L81.9020905,27.3519701 L81.9020905,27.3800281 C83.9986892,26.1240625 85.8875342,25.9698211 87.0795593,26.380524 L87.2716943,26.4541134 L87.268187,26.4400844 C88.8885378,27.141535 89.4251474,29.0845529 88.2852903,30.2980624 C88.1730582,30.4173089 87.892478,30.3892509 87.892478,30.1998593 C87.7932484,28.8756575 85.2904763,26.5299502 81.5533645,28.8524241 L81.270785,29.0354514 L79.6269279,33.3654621 C76.8807008,40.5211176 73.9311844,45.6054666 69.74946,44.4217688 C66.8349331,43.5975644 67.1716293,39.427441 70.3071132,35.9763044 C72.4780512,33.6608659 74.8307382,31.522806 77.342662,29.5825828 L77.5460827,29.0284369 L78.2196997,27.093668 L78.4053596,26.57336 L78.577215,26.0121996 L77.6069607,27.1129134 C76.7665132,28.029328 75.0188761,29.6891018 72.3786168,29.3414259 L72.0291743,29.2844663 L71.7345524,29.2174731 C69.5456132,28.6582147 68.9476144,27.0670058 68.8971976,25.6755034 C66.5753964,28.5549578 64.1799428,29.3896839 62.6016791,29.3511041 C60.490313,29.2984953 58.9401074,27.7097099 59.9712396,24.7004871 L60.6882492,22.6471565 C61.3554734,20.7604751 62.2964639,18.1371992 63.27372,15.4200749 L63.6197531,14.4582397 L63.7700515,14.0406059 L64.0702826,13.2065292 C65.4185256,9.46135626 66.713719,5.86789195 67.3364702,4.10239229 L67.517539,3.4900479 C67.9004255,2.13016549 67.9936417,1.25362633 67.5363836,0.879227107 C67.403108,0.766995022 67.5924997,0.59163239 67.7538333,0.503951073 C68.8656324,-0.0992963827 70.4263598,-0.274659015 71.3908543,0.619690411 Z M76.8200814,31.7009634 L76.1383511,32.2570849 C74.3674358,33.731083 70.6463492,37.0465002 69.5004451,39.7676445 C68.9533137,41.065328 69.0936038,42.0964603 70.0300402,42.1876488 C72.1023005,42.3928231 74.267915,38.2636907 76.6016506,32.3358211 L76.7815016,31.876326 L76.8200814,31.7009634 Z M17.3756562,5.25978567 L17.1377517,5.98749158 C16.7565199,7.11087086 15.9663191,9.37001786 15.0491969,11.9614879 L13.7596787,15.5886447 C18.845195,14.3716281 27.9219649,8.46541459 28.9741407,4.65653821 C29.103909,4.48117558 29.2897934,4.41804503 29.5879099,4.61795843 C30.1245196,4.9756982 30.3314475,5.87004763 30.1245196,6.69775926 C29.2968079,9.9910695 23.1696376,14.6557155 17.789512,17.0546763 L17.9778576,17.5402336 C18.4566313,18.7400852 19.3320079,20.7371343 20.2788432,22.7568036 L20.6606177,23.5640417 C21.2366841,24.7712004 21.8228687,25.9493227 22.3489404,26.9310998 C24.1516683,30.3120914 26.0561065,31.8903551 29.0127205,32.0657177 C30.5774228,32.1573739 32.2398917,31.5952158 33.1988484,30.7727542 L33.393279,30.5926716 L33.37925,30.6242368 C33.5896852,30.4032799 33.933396,30.7084109 33.7755696,30.9749621 C32.5537019,32.7966668 30.5531264,33.9454095 28.3638787,34.082388 C21.4861563,34.5453453 18.8522095,29.8877138 13.9420558,18.3698961 L12.5812418,18.8574042 L10.2734696,25.170459 C9.24935179,28.2813921 9.18271399,29.9859169 9.88416452,30.4769322 C10.0419909,30.5751353 9.96483133,30.8381793 9.69126562,30.9258606 C6.9521013,31.7886447 4.43038664,30.1718013 5.8332877,26.1104027 L13.3282866,4.8354081 C13.791244,3.43250704 13.542229,2.53114311 12.7951842,2.33473696 C9.22129377,1.38777874 0.951192012,8.94240095 2.13664341,15.9183265 C2.32977612,17.0509353 3.08812208,17.7191526 3.53911425,17.7290748 L3.63073304,17.7210543 C3.67830304,17.711651 3.72740857,17.7268559 3.76134124,17.7614955 C3.79527391,17.7961351 3.80946321,17.8455437 3.79908117,17.8929097 C3.54931998,18.7486241 2.65992859,19.2463712 1.79994715,19.0117233 C0.530321693,18.7346504 0.11646588,17.3738363 0.0463208274,16.6723858 C-0.65162245,9.45445984 6.66450658,0.791545791 13.4299969,0.0865880078 C16.0078276,-0.183470446 18.427832,1.12824205 17.3756562,5.25978567 Z M43.449611,15.956818 L43.3714128,16.230472 L40.3025668,25.0757632 C39.972885,25.9981706 40.1938419,26.9591578 40.8461909,27.1380277 C42.7506291,27.6606084 45.2127205,24.8127192 46.4086936,22.0069171 L46.8362979,20.9751956 C47.1999298,20.0742712 47.5146785,19.2359973 47.7406391,18.6168004 L48.2401097,17.2105025 C48.7669922,15.6866286 49.1636406,14.3225265 48.856756,13.635105 C48.7760892,13.4527279 48.9058575,13.358032 49.0987564,13.2563217 C49.6458878,12.9792488 51.5117462,12.3619723 52.5042987,13.329974 C53.2495899,14.0520784 53.1658597,15.2246698 52.4924293,16.9984322 L52.3675159,17.3177203 L52.6586226,16.9586411 C55.5479317,13.4495668 57.7879796,12.3847589 59.6908739,13.1111032 L59.8800511,13.1896839 C62.461389,14.3540918 61.1216185,18.8433752 57.5863078,19.1309699 C57.3930192,19.1465577 57.2385269,19.0263585 57.3568402,18.7851519 L57.4144525,18.6890561 C57.8423373,18.0331998 57.8002502,16.619777 56.5516683,16.4970232 C55.3030864,16.3742693 53.4828222,17.8052284 52.174617,19.5798982 C50.9996874,21.1511474 49.7896852,23.8201667 48.5726685,27.4642022 C48.2780593,28.3515371 48.4183494,28.5619723 48.4534219,28.6215956 C48.4702576,28.653409 48.4702576,28.6914925 48.4534219,28.7233059 C48.2991028,29.0179151 47.4082606,29.3686404 46.5454765,29.3686404 C44.7848357,29.3616259 44.0623416,28.3445226 44.4130669,26.7276792 C42.4104256,28.6391318 40.3902481,29.5615393 38.6085637,29.4002057 C37.815222,29.3313054 37.0912795,28.9201388 36.6257506,28.2740574 C36.1602216,27.6279761 35.9993188,26.8111156 36.1850522,26.0367504 C34.6383537,27.9973046 32.3446105,29.5790756 30.0087802,29.3616259 C27.67295,29.1441762 26.2139329,27.5553908 26.9714994,24.170892 C27.6098194,21.3545681 28.6970677,18.4365339 29.3634457,16.5531392 C29.9210989,14.9748755 30.033331,13.9437432 29.6826057,13.5719745 C29.5703737,13.4492206 29.742229,13.301916 29.8930409,13.2212492 C31.7238268,12.260262 34.65589,12.8810457 33.8281784,15.4869344 L33.5019494,16.4898251 C32.6116909,19.1734928 31.3467971,22.6361991 31.0644633,23.5080212 C30.2648097,25.9876488 30.7488105,27.3274194 31.8816532,27.3905499 C32.947858,27.4499669 34.3402737,26.4748293 35.3951479,24.9651444 L35.5888192,24.6759364 C37.3775181,22.1112578 38.2722785,18.9393177 39.0880487,16.5906101 L39.250391,16.1322689 C39.4713479,15.5255142 39.8220732,14.1085841 39.4503044,13.5824962 C39.3521013,13.4492206 39.5239567,13.301916 39.7484208,13.1791622 C41.4069129,12.262717 44.365697,12.4831939 43.449611,15.956818 Z" id="Shape"></path>
                                </g>
                            </g>
                        </g>
                    </g>
                </g>
            </g>
        </g>
    </g>
</svg>